<?xml version="1.0" encoding="iso-8859-1"?>
<!-- Generator: Adobe Illustrator 19.0.0, SVG Export Plug-In . SVG Version: 6.00 Build 0)  -->
<svg version="1.1" id="Layer_1" xmlns="http://www.w3.org/2000/svg" xmlns:xlink="http://www.w3.org/1999/xlink" x="0px" y="0px"
	 viewBox="0 0 300 300" style="enable-background:new 0 0 300 300;" xml:space="preserve">
<path id="XMLID_227_" d="M285,179.999c8.284,0,15-6.716,15-15v-70c0-8.284-6.716-15-15-15h-36.51
	c-6.01-29.491-29.383-52.734-58.936-58.571C187.95,14.872,182.052,10,175,10s-12.95,4.873-14.555,11.429
	c-29.553,5.837-52.926,29.08-58.935,58.571H70v-5V15c0-8.284-6.716-15-15-15H15c-8.284,0-15,6.716-15,15s6.716,15,15,15h25v44.999
	v20v70v60c0,8.284,6.716,15,15,15h7.58c-1.665,4.695-2.58,9.742-2.58,15c0,24.813,20.187,45,45,45s45-20.187,45-45
	c0-5.258-0.915-10.305-2.58-15h34.16c-1.665,4.695-2.58,9.742-2.58,15c0,24.813,20.186,45,45,45s45-20.187,45-45
	c0-5.258-0.915-10.305-2.58-15H285c8.284,0,15-6.716,15-15c0-8.284-6.716-15-15-15H70v-30H285z M175,50
	c19.555,0,36.227,12.542,42.42,30h-84.84C138.773,62.541,155.445,50,175,50z M270,109.999v40H70v-40H270z M120,254.999
	c0,8.271-6.729,15-15,15s-15-6.729-15-15c0-8.271,6.729-15,15-15S120,246.729,120,254.999z M239,254.999c0,8.271-6.729,15-15,15
	s-15-6.729-15-15c0-8.271,6.729-15,15-15S239,246.729,239,254.999z"/>
<g>
</g>
<g>
</g>
<g>
</g>
<g>
</g>
<g>
</g>
<g>
</g>
<g>
</g>
<g>
</g>
<g>
</g>
<g>
</g>
<g>
</g>
<g>
</g>
<g>
</g>
<g>
</g>
<g>
</g>
</svg>
